<svg xmlns="http://www.w3.org/2000/svg" viewBox="0 0 236.44 136.893">
  <defs>
    <clipPath id="a" clipPathUnits="userSpaceOnUse">
      <path d="M263.699 809.41c-.719 1.352-1.89 3.512-1.711 3.961l.09.27v.089l.274.54v.089l.359.813.09.18.898 2.25.27.449.453 1.258.269.543c1.981 4.589 4.68 10.796 6.75 15.476l.09.363.989 2.34-.27.36c-.988 1.257-2.07 2.519-3.148 3.871l-.364.449c-1.078 1.348-2.16 2.789-3.328 4.23l-1.082 1.348c-1.078 1.352-2.156 2.793-3.328 4.32l-.629.723c-.992 1.348-2.16 2.789-3.242 4.137l-.449.633c-4.77 6.207-9.629 12.597-14.309 18.718l-5.582-6.121.09-.359.09-.09.359-.809-.09-.179v.09l-.539-.364h-.09l-.539.453-.179.18v.09l-5.582-6.031.179-.27v-.09l.364-.808-.09-.18v.09l-.453-.363h-.18l-.449.453-.27.179-1.801-1.89-3.687-4.051.09-.27.09-.089h-.09l.359-.809-.09-.184v.09l-.453-.359h-.18l-.449.453-.179.18-5.489-6.032.09-.269.09-.09.359-.812-.09-.18h-.089l-.45-.27.09-.089h-.179l-.543.449-.18.269-5.668-6.117-.27.09-1.171 1.711v.359l.179.36.09.179.18.719v.09c.179.633.453 1.351.812 2.34v.09l.539 1.351v.18l.18.449c.359.902.719 1.981 1.078 3.063v.089l.633 1.797.269.543.45 1.528.269.632.539 1.528.633 1.801.27.718c1.621 4.594 3.418 9.633 5.218 14.492a22.485 22.485 0 00-1.711 2.61l-1.168 2.43.09.089v.09h.09l.09.18.18.18v.089l.359.364c.633.629 1.531 1.437 2.699 2.07l.543.359.27.09.179.09 1.258.359.184-.269c.988 2.699 1.887 5.219 2.699 7.379.449 1.262.899 2.43 1.258 3.422-.988 1.347-1.981 2.609-2.879 3.867-.809 1.082-1.531 2.16-2.25 3.152l-.18.27-1.082 1.347c-.808 1.172-1.527 2.161-2.16 3.063l-.269.449-.539.719-.36.453-.449.629-.539.809c-6.57 9.449-9.094 19.171-5.582 21.601 3.512 2.34 11.609-3.422 18.18-12.961l.628-.808.274-.454.449-.628.359-.629.54-.813.449-.629c1.261-1.89 2.883-4.32 4.679-7.199.813-1.262 1.711-2.609 2.524-3.961 1.168 0 2.43 0 3.867-.09h.813c2.07 0 4.41-.09 7.019-.09l-.18.36.809.992.09.09v.09l.18.089.539.54c1.082.902 2.25 1.441 2.972 1.8l.449.09.27.09.18.09h.09l.089.09 1.891-1.981 1.891-2.519c10.168-.18 21.058-.36 27.808-.539h.629l1.352-.09h.269c.903 0 1.711 0 2.34-.09H294.121l.359-.09h.36l1.172-1.98-7.742-3.153.179-.359.27-.539-.09-.18-.539-.269.09-.09H288l-.629.629h-.09l-.09.09-.089.179h-.09l-7.563-2.969.09-.269.27-.629-.09-.094-.449-.359h-.18l-.629.633v-.09l-.09.18-.09.089-1.711-.632-5.941-2.34.09-.18.09-.18.269-.539-.09-.179-.449-.36h-.18l-.629.629-.179.09-.09.18-7.563-2.969v-.18l.18-.179-.09-.09.364-.543-.09-.18h-.09l-.453-.269h.09l-.18-.09-.719.629-.09.089-.179.184v.09l-7.832-3.152a1879.754 1879.754 0 0012.062-19.438l.27-.453c.988-1.617 2.07-3.328 3.058-4.949l.449-.809c1.082-1.711 2.071-3.422 3.153-5.133l.539-.898c2.07-3.418 3.961-6.75 5.762-9.809l.269-.449c8.277.449 26.188 1.258 26.731 1.168l3.957-4.051-5.668-2.519-17.731-7.739.36-.722.089-.09.18-.539.09-.09.269-.539.454-.992-1.172-1.078-1.442-.813-1.258 1.352-.628.718-.364.454-.09-.18-13.41-13.684-4.41-4.406-.629 1.078m-52.289 41.129h.09-.09m25.289 18.449h.09-.09m51.75 34.653l-.09.089.09-.089" clip-rule="evenodd"/>
    </clipPath>
  </defs>
  <path d="M47.027 129.737a5.067 5.067 0 01-5.653 4.406l-17.296-2.145a5.066 5.066 0 01-4.406-5.653L33.564 14.31a5.067 5.067 0 015.652-4.407l17.296 2.145a5.07 5.07 0 014.406 5.653l-13.89 112.036" fill="#c6d7cd"/>
  <path d="M41.173 10.146l-1.957-.243a5.067 5.067 0 00-5.652 4.407L19.672 126.345a5.066 5.066 0 004.406 5.653l1.957.244L41.173 10.146" fill="#2959ab"/>
  <path d="M53.57 30.085l.802-.203-.003-.007-.425-.618c-.072-.022-2.44-.304-3.543-.438l-.025-.066a93.05 93.05 0 00-.545-1.413l-.05-.13c-.096-.246-.195-.493-.294-.744l-.045-.114c-.095-.24-.194-.482-.294-.726l-.02-.056a309.47 309.47 0 00-1.165-2.83l1.105-.24.005.008.016.027.01.02.002-.002.072.096h.025l-.003-.004.067-.033.002.006.015-.021-.025-.084.003-.002-.01-.026-.007-.023 1.062-.23.018.027.012.02v-.001l.072.093h.023l-.002-.003.067-.031.004.005.012-.02-.021-.085.003-.002-.01-.026-.005-.016.833-.18.23-.05.013.017.012.023V22l.073.092.024.003-.005-.003.072-.034-.003.005.017-.017-.022-.088-.01-.032 1.064-.231.004.006.015.02.011.022.002-.002.07.097h.024v-.004l.067-.032v.005l.016-.021-.024-.082.005-.003-.016-.044 1.092-.238-.117-.29-.029-.01-.018-.006-.048-.01-.025-.006-.083-.018-.025-.006-.31-.065-.033-.005-.184-.037-.015-.002-.062-.014-.007-.01.003.01c-.875-.174-2.306-.442-3.646-.692a3.018 3.018 0 00-.19-.371l.003-.002h-.003l-.197-.29h-.016l-.011.001h-.007l-.026.006-.036.003-.053.01a1.59 1.59 0 00-.44.172v-.002l-.074.054-.025.013-.006.005-.018.01-.13.118.016.049c-.335-.062-.642-.12-.92-.17l-.106-.02.002.002c-.19-.034-.354-.067-.502-.094-.086-.202-.17-.392-.248-.574-.18-.417-.333-.773-.458-1.057l-.04-.082-.056-.127-.036-.084-.044-.099-.028-.066-.06-.122c-.653-1.4-1.597-2.34-2.107-2.102-.514.239-.397 1.569.257 2.967l.058.12.038.08.036.074.052.11.032.066c.064.131.14.279.222.446l.103.203.018.039c.075.144.151.3.233.467.093.18.189.365.29.567l-.242.425c-.152.267-.324.575-.513.91l-.026-.044-.173.024-.023.006-.004.002-.03.01-.087.025a1.427 1.427 0 00-.394.215l-.058.045-.002.003v.001l-.023.02-.022.02-.002.003-.005.003-.007.008-.012.009.097.34c.053.146.112.278.166.387-.337.601-.689 1.222-1.007 1.791l-.044.086-.13.229-.104.189-.046.08-.099.181-.038.065-.123.222-.005.01c-.075.139-.147.27-.213.386l-.007-.008.007.01-.032.058-.007.014-.096.172-.004.015-.157.29-.006.01-.043.084-.01.02-.025.046-.005.016-.01.028.12.253.028.024.88-.686.004.002.021.037h.001l.052.07.025.003-.003-.007.068-.029.002.003.015-.018-.029-.115-.002-.015-.015-.04.861-.666.018.028.002-.001.051.071.023.003-.001-.007.067-.03.003.003.013-.018-.028-.114h.005l-.005-.015-.011-.03.583-.451.276-.216.024.037.002-.002.051.072.025.003-.004-.006.07-.03v.005l.013-.02-.024-.114v-.002l-.005-.014-.012-.037.857-.667.005.007.023.037.055.07.024.003-.005-.006.073-.03-.001.005.012-.02-.024-.115h.003l-.007-.016-.015-.044.879-.685c.473.909.97 1.86 1.462 2.776l.05.094.331.62.059.11.353.647.112.2c.114.212.226.42.34.622l.04.07c.11.2.217.392.326.578l.03.057-.18.28-.03.044c-.371.57-.862 1.328-1.226 1.893l-.041.064-.1.15-.037.06-.173.273-.016.023-.062.098-.003.004-.043.068-.005.011-.017.032c-.029.058.072.366.14.56l.06.161.669-.488v.002l2.065-1.502.022-.016.042.07.065.098.135.206.203-.071.18-.11-.038-.144-.003-.006-.023-.08-.004-.012-.02-.068-.004-.014-.004-.006-.028-.095 2.5-.628" fill="#fff"/>
  <path d="M35.135 31.528l-1.27-.158 2.304-18.578 1.271.16-2.305 18.576" fill="#fff"/>
  <path d="M37.833 25.375l-1.269-.158.74-5.96 1.269.157-.74 5.961" fill="#fff"/>
  <path d="M37.037 31.805l-1.27-.157.74-5.962 1.268.16-.738 5.96" fill="#fff"/>
  <path d="M38.61 19.11l-1.269-.158.74-5.961 1.268.157-.739 5.961" fill="#fff"/>
  <path d="M23.068 128.863l-.634-.077 2.3-18.58.638.081-2.304 18.576" fill="#fff"/>
  <path d="M24.811 122.591l-.632-.078.74-5.96.632.078-.74 5.96" fill="#fff"/>
  <path d="M24.015 129.024l-.634-.08.739-5.96.634.078-.74 5.962" fill="#fff"/>
  <path d="M25.589 116.327l-.635-.078.74-5.962.634.079-.74 5.96" fill="#fff"/>
  <path d="M25.452 109.651l-.637-.078 2.302-18.579.637.08-2.302 18.577" fill="#fff"/>
  <path d="M27.194 103.378l-.634-.077.74-5.962.632.078-.738 5.96" fill="#fff"/>
  <path d="M26.396 109.81l-.633-.08.739-5.96.633.079-.74 5.96" fill="#fff"/>
  <path d="M27.971 97.114l-.634-.08.738-5.96.634.078-.738 5.962" fill="#fff"/>
  <path d="M40.814 132.347c-.17 0-.341-.01-.513-.031l-2.91-.362c.173.022.343.032.513.032 1.39 0 2.677-.701 3.536-1.825l3.248-.142c-.835 1.415-2.287 2.328-3.874 2.328m16.334-99.271h-2.955l1.846-14.89c.336-2.712-1.394-5.16-3.864-5.467l2.91.362c2.471.306 4.2 2.754 3.864 5.465l-1.801 14.53" fill="#aab9b1"/>
  <path d="M31.815 130.395l-1.235-.153 4.49-36.222 1.236.153-4.49 36.222" fill="#abadaf"/>
  <path d="M35.221 118.164l-1.24-.153 1.44-11.623 1.24.154-1.44 11.622" fill="#abadaf"/>
  <path d="M33.667 130.703l-1.24-.154 1.441-11.621 1.24.155-1.441 11.62" fill="#abadaf"/>
  <path d="M36.734 105.952l-1.24-.155 1.442-11.622 1.24.154-1.442 11.623" fill="#abadaf"/>
  <path d="M36.458 92.935l-1.234-.153 4.49-36.22 1.237.153-4.493 36.22" fill="#abadaf"/>
  <path d="M39.865 80.706l-1.24-.154 1.441-11.622 1.24.155-1.441 11.62" fill="#abadaf"/>
  <path d="M38.311 93.243l-1.24-.153 1.441-11.623 1.238.153-1.439 11.623" fill="#abadaf"/>
  <path d="M41.38 68.492l-1.24-.155 1.44-11.623 1.24.153-1.44 11.625" fill="#abadaf"/>
  <path d="M50.552 124.69a5.068 5.068 0 01-4.843 5.285l-17.412.757a5.068 5.068 0 01-5.284-4.843L18.101 13.103a5.07 5.07 0 014.844-5.285l17.41-.757a5.07 5.07 0 015.286 4.842l4.911 112.787" fill="#e6f6ec"/>
  <path d="M24.914 7.734l-1.969.084a5.07 5.07 0 00-4.844 5.285l4.912 112.786a5.068 5.068 0 005.284 4.843l1.971-.086L24.914 7.734" fill="#2959ab"/>
  <path d="M22.512 29.82l-1.28.058-.814-18.703 1.28-.056.814 18.702" fill="#fff"/>
  <path d="M24.151 23.306l-1.28.054-.26-6 1.279-.056.261 6.002" fill="#fff"/>
  <path d="M24.432 29.78l-1.277.054-.262-6 1.279-.056.26 6.001" fill="#fff"/>
  <path d="M23.875 16.999l-1.276.055-.262-6.002 1.278-.056.26 6.003" fill="#fff"/>
  <path d="M26.78 127.81l-.64.027-.815-18.702.641-.027.814 18.702" fill="#fff"/>
  <path d="M27.457 121.335l-.637.027-.26-6 .635-.029.262 6.002" fill="#fff"/>
  <path d="M27.74 127.808l-.637.029-.263-6.002.638-.028.262 6.001" fill="#fff"/>
  <path d="M27.182 115.028l-.636.029-.262-6.003.636-.026.262 6" fill="#fff"/>
  <path d="M25.937 108.468l-.64.028-.814-18.703.64-.029.814 18.704" fill="#fff"/>
  <path d="M26.616 101.993l-.638.028-.262-6.002.637-.028.263 6.002" fill="#fff"/>
  <path d="M26.897 108.468l-.638.025-.262-6 .638-.028.262 6.003" fill="#fff"/>
  <path d="M26.341 95.686l-.639.027-.26-6 .638-.028.261 6.001" fill="#fff"/>
  <path d="M41.418 128.479c1.934-.085 3.524-1.494 4.08-3.4h2.892c-.588 1.84-2.15 3.188-4.044 3.272l-2.928.128m3.292-95.403h-2.935l-.866-19.884c-.117-2.663-2.128-4.752-4.535-4.752-.06 0-.121.001-.182.004l2.928-.128c.06-.002.121-.003.181-.003 2.409 0 4.42 2.09 4.538 4.752l.87 20.01" fill="#c7d8ce"/>
  <path d="M35.659 127.867l-1.244.053-1.587-36.464 1.243-.054 1.588 36.465" fill="#abadaf"/>
  <path d="M36.987 115.24l-1.249.054-.509-11.7 1.248-.054.51 11.7" fill="#abadaf"/>
  <path d="M37.536 127.863l-1.249.054-.507-11.7 1.247-.053.51 11.7" fill="#abadaf"/>
  <path d="M36.45 102.945l-1.247.055-.51-11.702 1.25-.053.508 11.7" fill="#abadaf"/>
  <path d="M34.017 90.155l-1.244.054-1.587-36.462 1.244-.056 1.587 36.464" fill="#abadaf"/>
  <path d="M35.345 77.53l-1.249.054-.51-11.7 1.249-.054.51 11.7" fill="#abadaf"/>
  <path d="M35.895 90.152l-1.25.054-.51-11.7 1.25-.054.51 11.7" fill="#abadaf"/>
  <path d="M34.808 65.234l-1.247.053-.51-11.7 1.247-.055.51 11.702" fill="#abadaf"/>
  <path d="M50.553 124.706v-.016.016m0-.016l-.044-.98.043.98" fill="#bebfbf"/>
  <path d="M50.536 125.078H48.39c.138-.432.223-.892.245-1.369h1.874l.043.98v.017c.005.126-.012.248-.016.372m-5.038 0h-8.083l-.06-1.369h8.354a5.34 5.34 0 01-.21 1.37m-9.334 0h-.628l-.059-1.37h.627l.06 1.37" fill="#a7b6b0"/>
  <path d="M22.893 125.078H19.83l.169-1.369H22.918l.038.861-.063.508" fill="#23447f"/>
  <path d="M22.978 125.078h-.085l.063-.508.022.508" fill="#bebfbf"/>
  <path d="M34.292 125.078h-4.267l-.059-1.369h4.266l.06 1.37" fill="#a7b6b0"/>
  <path d="M30.025 125.078H27.62l-.06-1.369h2.406l.06 1.37m-3.044 0h-.321l-.06-1.37h.32l.06 1.37m-.962 0h-3.041l-.022-.509-.038-.86h3.042l.06 1.368" fill="#23447f"/>
  <path d="M26.66 125.078h-.64l-.06-1.369h.642l.059 1.37" fill="#bebfbf"/>
  <path d="M27.62 125.078h-.638l-.06-1.369h.639l.06 1.37" fill="#bebfbf"/>
  <path d="M48.39 125.078h-2.892c.127-.434.2-.893.211-1.369h2.926a5.322 5.322 0 01-.245 1.37" fill="#8f9e9a"/>
  <path d="M35.537 125.078h-1.245l-.06-1.369h1.246l.06 1.37" fill="#7b8084"/>
  <path d="M37.415 125.078h-1.25l-.06-1.369h1.25l.06 1.37" fill="#7b8084"/>
  <path d="M58.792 34.855l.22-1.78h.001l-.22 1.78" fill="#bebfbf"/>
  <path d="M58.791 34.855h-1.864l.22-1.78h1.865l-.22 1.78m-4.82 0H46.64l-.077-1.78h7.63l-.22 1.78" fill="#8e9d99"/>
  <path d="M56.927 34.855h-2.955l.22-1.78h2.956l-.22 1.78" fill="#7a8987"/>
  <path d="M46.64 34.855h-1.853l-.077-1.78h1.853l.077 1.78m-4.788 0H26.095l-.077-1.78h15.757l.077 1.78" fill="#a7b6b0"/>
  <path d="M26.095 34.855H19.05l-.078-1.78h7.047l.077 1.78" fill="#23447f"/>
  <path d="M44.787 34.855h-2.935l-.077-1.78h2.935l.077 1.78" fill="#8f9e9a"/>
  <path d="M68.468 123.575c1.014-.33 2.323-.95 2.323-2.849V38.271c-.056-1.635-.94-2.864-2.192-3.19a6.64 6.64 0 00-1.366-.226H6.068v88.854h61.291c.396-.003.913-.07 1.109-.134" fill="#91192f"/>
  <path d="M22.626 123.71H6.068V34.854h17.474l.033.044s-11.382.647-11.657 5.445v77.273s.137 5.834 9.05 5.964c.618.008 1.163.055 1.658.128" fill="#4b1418"/>
  <path d="M20 62.861v2.972h1.357c1.02 0 1.541-.371 1.541-1.487 0-1.123-.52-1.485-1.541-1.485zm0 3.39v2.694h-.465v-6.502h1.822c1.31 0 2.007.585 2.007 1.903 0 1.33-.697 1.905-2.007 1.905H20" fill="#fff"/>
  <path d="M25.013 66.623h2.555l-1.272-3.493zm2.712.417h-2.86l-.697 1.905h-.483l2.378-6.502h.464l2.38 6.502h-.484l-.698-1.905" fill="#fff"/>
  <path d="M31.905 69.039a3.93 3.93 0 01-2.118-.622l.195-.41c.547.362 1.114.613 1.913.613.976 0 1.691-.342 1.691-1.365 0-2.155-3.604-.632-3.604-3.317 0-1.087.872-1.588 1.96-1.588.808 0 1.468.223 1.978.511l-.166.4a3.64 3.64 0 00-1.812-.493c-.837 0-1.497.38-1.497 1.17 0 2.192 3.606.669 3.606 3.317 0 1.347-.966 1.784-2.146 1.784" fill="#fff"/>
  <path d="M37.281 69.039c-.817 0-1.561-.26-2.118-.622l.195-.41c.548.362 1.115.613 1.914.613.975 0 1.69-.342 1.69-1.365 0-2.155-3.604-.632-3.604-3.317 0-1.087.874-1.588 1.961-1.588.807 0 1.467.223 1.979.511l-.168.4a3.637 3.637 0 00-1.81-.493c-.838 0-1.497.38-1.497 1.17 0 2.192 3.604.669 3.604 3.317 0 1.347-.968 1.784-2.146 1.784" fill="#fff"/>
  <path d="M41.376 62.861v2.972h1.356c1.022 0 1.541-.371 1.541-1.487 0-1.123-.52-1.485-1.541-1.485zm0 3.39v2.694h-.465v-6.502h1.82c1.31 0 2.007.585 2.007 1.903 0 1.33-.696 1.905-2.006 1.905h-1.356" fill="#fff"/>
  <path d="M50.597 65.694c0-2.304-.844-2.926-2.116-2.926-1.274 0-2.119.622-2.119 2.926 0 2.303.845 2.926 2.119 2.926 1.272 0 2.116-.623 2.116-2.926zm-4.7 0c0-2.545 1.032-3.344 2.584-3.344 1.55 0 2.582.799 2.582 3.344S50.03 69.04 48.48 69.04c-1.552 0-2.584-.8-2.584-3.345" fill="#fff"/>
  <path d="M52.965 62.861v2.73h1.448c.975 0 1.449-.408 1.449-1.364 0-.948-.474-1.366-1.449-1.366zm1.819 3.13l1.728 2.954h-.538l-1.719-2.934h-1.29v2.934H52.5v-6.502h1.913c1.254 0 1.914.622 1.914 1.784 0 1.04-.53 1.652-1.543 1.763" fill="#fff"/>
  <path d="M59.39 62.861v6.084h-.465v-6.084h-1.857v-.418h4.18v.418H59.39" fill="#fff"/>
  <path d="M70.243 56.217l-.246-17.162s-.808-3.271-3.687-3.588c-2.332-.256-8.92-.334-8.92-.334h8.846c.492 0 3.793.104 4.183 2.902l-.176 18.182" fill="#a14685"/>
  <path d="M92.63 26.867s-2.023 1.427-2.024 4.044c-.002 2.618-.037 72.229-.038 78.417-.004 6.187 1.9 6.427 4.874 6.428 2.975 0 51.167.025 56.403.028 5.236.003 6.486.27 7.423.953.936.683 2.092.571 2.983.087.94-.512 2.857-.51 4.306-.51l46.644.022 13.574.008c1.773 0 3.558-.95 3.56-4.073.001-3.123.038-78.517.038-81.194.003-2.676.114-3.903-2.228-3.904-2.341-.002-135.515-.306-135.515-.306" fill="#223353"/>
  <path d="M95.781 24.591s-4.384.526-4.385 5.062l-.04 79.516c-.003 3.891.07 6.146 3.265 6.148l56.446.027c.433 0 .856 0 1.265-.002 3.439-.01 6.008-.019 7.13.822 1.251.94 1.69.689 2.818.125 1.128-.562 6.64-.246 11.15-.245l48.098.024c5.472.002 8.323.268 8.325-4.432l.034-72.084.005-9.898c.001-2.798-.599-3.8-1.799-3.8-1.198 0-132.312-1.263-132.312-1.263" fill="#b9b8ac"/>
  <path d="M96.27 24.591s-4.353.526-4.355 5.047c-.001 4.52-.036 74.872-.039 79.256 0 3.88.07 6.127 3.241 6.127 3.172.003 51.984.026 56.026.029.428 0 .845-.001 1.25-.003 3.416-.01 5.97-.02 7.08.818 1.246.938 1.68.687 2.8.127 1.119-.562 6.59-.247 11.068-.245l47.739.023c5.433.004 8.261.267 8.263-4.416l.036-71.85c.001-5.28.004-7.076.004-9.865.001-2.792-.594-3.788-1.784-3.788s-131.33-1.26-131.33-1.26" fill="#b9b8ac"/>
  <path d="M151.583 24.036s2.808 0 5.304.003c2.496 0 4.212.936 4.21 2.341l-.044 89.547s-1.09-1.092-3.9-1.094l-48.673-.025c-2.992 0-12.15-.005-13.286-.005-1.136 0-2.565-.71-2.563-3.633.002-2.924.023-48.29.028-55.188l.011-24.145v-2.72c.002-2.193.56-5.1 5.247-5.098l53.666.017" fill="#f8f6e6"/>
  <path d="M161.097 26.38s.208-2.352 2.672-2.35c2.463 0 61.1.028 62.468.03 1.37 0 2.6.48 2.599 2.6l-.023 46.186-.018 38.29c-.002 3.4-1.644 4.299-4.944 4.298l-60.387-.03c-.701 0-2.353.004-2.353.731l-.014-89.755" fill="#f8f6e6"/>
  <path d="M156.887 24.039l-2.74-.002h-.002c.851 0 1.818 0 2.742.002" fill="#f8f6e6"/>
  <path d="M161.053 115.927s-1.09-1.092-3.9-1.094l-6.016-.003h.002l6.014.003c2.81.002 3.9 1.094 3.9 1.094l.004-8.782-.004 8.782" fill="#b1af99"/>
  <path d="M161.053 115.927s-1.09-1.092-3.9-1.094l-6.014-.003c5.977-1.592 7.613-6.03 7.617-15.176l.036-68.834c.001-3.466-2.93-5.547-4.645-6.783.85 0 1.817 0 2.74.002 2.496 0 4.212.936 4.21 2.341l-.001 3.187c-.105-1.99-.237-3.312-.401-3.786l.245 89.546s.05-3.114.117-8.182l-.004 8.782" fill="#edeac8"/>
  <path d="M161.499 25.22c.357-.592 1.025-1.19 2.266-1.19-1.241 0-1.909.598-2.266 1.19m6.464-1.189c-2.331 0-3.84-.002-4.194-.002l4.195.002h-.001m-4.194-.002h-.002.002" fill="#f8f6e6"/>
  <path d="M161.11 116.135v-12.882 12.882c0-.672 1.411-.727 2.18-.73-.769.003-2.18.059-2.18.73m2.354-.73h-.033.033m-.072 0h-.003.003m-2.295-89.025s.051-.577.402-1.16c-.351.583-.402 1.16-.402 1.16" fill="#b1af99"/>
  <path d="M161.11 116.135v-12.882c.26-20.418.666-60.8-.011-73.645l-.002-3.228s.051-.577.402-1.16c.357-.592 1.025-1.19 2.266-1.19h.004l4.194.001c-2.106.959-4.214 2.84-4.216 6.541l-.039 77.034c-.001 2.977 1.95 6.882 5.624 7.8l-5.868-.002H163.289c-.768.004-2.178.06-2.178.731" fill="#edeac8"/>
  <path d="M161.057 107.145l.039-77.578c0 .012.001.028.003.04l.01 73.646-.052 3.892" fill="#9e9e8b"/>
  <path d="M160.94 115.327l-.245-89.546c.164.474.296 1.795.401 3.786l-.039 77.578c-.068 5.068-.117 8.182-.117 8.182" fill="#cac69f"/>
  <path d="M161.11 103.253l-.011-73.645c.677 12.845.27 53.227.01 73.645" fill="#cac69f"/>
  <path d="M92.591 65.567l-.027-1.73-.054-4.561-.042-6.45c-.005-2.36-.012-4.878-.016-7.394.007-2.517.016-5.034.022-7.393l.05-6.45.013-1.354.06-1.225c.03-.384.096-.74.136-1.07l.021-.11a9.095 9.095 0 00-.084 1.287v2.72l-.011 24.145-.003 5.169-.034 2.686-.03 1.73" fill="#f4f4f3"/>
  <path d="M92.656 61.15c0-2.365.002-4.17.003-5.168l.011-24.145v-2.72c0-.412.02-.849.084-1.287.056-.284.129-.543.182-.783.094-.26.166-.496.255-.69.1-.19.17-.362.261-.48l.11-.161.093-.107.082-.082-.08.085-.088.11-.104.164c-.085.12-.149.292-.241.484-.08.197-.146.433-.232.693-.053.27-.129.564-.177.89-.031.33-.087.684-.107 1.065-.01.381-.018.788-.027 1.217.004.43.006.882.012 1.354l.041 6.45.019 7.393c-.01 2.517-.019 5.034-.025 7.394-.019 2.359-.034 4.56-.05 6.45l-.022 1.875" fill="#fefffc"/>
  <path d="M228.819 61.064c.005-10.013.012-23.531.014-30.286l.027 2.113.043 6.067c.005 2.22.012 4.587.016 6.956-.007 2.367-.014 4.735-.023 6.953l-.05 6.068-.027 2.129" fill="#f4f4f3"/>
  <path d="M228.761 64.854l-.029-1.629a4968.6 4968.6 0 01-.053-4.29 13908.9 13908.9 0 00-.043-6.068c-.004-2.218-.01-4.586-.016-6.955.01-2.367.016-4.734.023-6.954.018-2.22.036-4.291.049-6.067.023-1.776.044-3.256.059-4.291l.028-1.628.028 1.63c.006.59.016 1.324.026 2.176-.002 6.755-.009 20.273-.014 30.286-.011.845-.022 1.575-.028 2.162l-.03 1.628" fill="#fefffc"/>
  <path d="M228.23 52.65V29.103s.411-4.13-3.82-4.544h-21.687l21.478.516s3.202.414 3.511 4.028l.517 23.545" fill="#fff"/>
  <path d="M93.27 52.958V29.414s-.414-4.13 3.82-4.544h21.686l-21.48.516s-3.2.414-3.51 4.028l-.517 23.544" fill="#fff"/>
  <path d="M223.644 84.039a4.182 4.182 0 01-2.893 5.16l-18.526 5.213a4.185 4.185 0 01-5.161-2.894L193.824 80a4.183 4.183 0 012.893-5.16l18.527-5.213a4.182 4.182 0 015.16 2.894zm-7.901-15.62l-20.08 5.649c-2.412.678-3.806 3.214-3.118 5.662l3.57 12.684c.689 2.449 3.201 3.885 5.612 3.206l20.08-5.65c2.41-.678 3.805-3.213 3.116-5.662l-3.567-12.682c-.69-2.45-3.204-3.886-5.613-3.207" fill="#f24d7b"/>
  <path d="M205.536 87.09c-.017.013-.096.062-.373.14l-.135.038-.176-.635.092-.026c.327-.091.42-.09.436-.09l.12.06.104.184.01.21zm-.024-1.465c-.121-.004-.364.044-.723.146l-.969.272 1.024 3.639.601-.17-.386-1.372.394-.111c.364-.102.611-.21.74-.324a.916.916 0 00.267-.48c.05-.206.036-.44-.039-.702-.08-.29-.204-.51-.37-.663a.846.846 0 00-.539-.235" fill="#f24d7b"/>
  <path d="M204.975 76.192l-1.05.297 1.791 6.365 1.052-.296-1.793-6.366" fill="#f24d7b"/>
  <path d="M208.479 86.15c-.012.007-.092.054-.451.155l-.248.069-.147-.523.272-.077c.342-.095.422-.102.43-.103l.104.043.084.158.012.193zm.754.892a1.59 1.59 0 00-.405-.214.948.948 0 00.49-.491c.087-.212.091-.46.01-.745a1.21 1.21 0 00-.297-.542.796.796 0 00-.438-.243c-.157-.028-.398.006-.722.097l-1.268.357 1.024 3.638.6-.17-.427-1.518.123-.034a.829.829 0 01.316-.045l.221.098c.075.057.232.206.468.448l.66.669.717-.202-.561-.608a4.389 4.389 0 00-.51-.495" fill="#f24d7b"/>
  <path d="M202.756 87.873c-.016.012-.095.062-.373.14l-.132.037-.179-.635.093-.025c.326-.093.419-.092.435-.09l.121.06.103.184.008.21zm-.024-1.466c-.121-.005-.363.045-.721.146l-.97.273 1.026 3.638.598-.17-.385-1.371.395-.111c.361-.103.609-.211.738-.325a.905.905 0 00.267-.48c.05-.205.036-.44-.037-.703-.082-.29-.207-.51-.372-.66a.828.828 0 00-.539-.237" fill="#f24d7b"/>
  <path d="M203.345 83.521l.08-6.893-1.12.315.048 5.073-2.648-4.34-1.142.32 3.658 5.841 1.124-.316" fill="#f24d7b"/>
  <path d="M212.11 86.562c-.149.38-.527.49-.862.238-.18-.135-.325-.393-.43-.765-.107-.38-.122-.676-.04-.878a.54.54 0 01.374-.35.532.532 0 01.499.101c.169.13.31.387.416.762.108.384.121.684.042.892zm-1.194-2.582a1.38 1.38 0 00-.695.418c-.168.195-.276.452-.326.768-.048.316-.012.69.11 1.124.168.598.442 1.028.822 1.29.334.23.718.283 1.149.16.43-.12.724-.366.89-.74.187-.421.197-.937.025-1.546-.168-.602-.434-1.028-.794-1.279a1.342 1.342 0 00-1.181-.195" fill="#f24d7b"/>
  <path d="M199.635 89.378l.006-.496.27.42zm-.743-1.948l-.137 3.965.641-.18.013-.892 1.195-.338.492.75.655-.183-2.222-3.301-.637.18" fill="#f24d7b"/>
  <path d="M213.488 77.734l.025-1.594.863 1.345zm-1.137-3.617l-.242 6.938 1.122-.315.024-1.562 2.09-.588.862 1.312 1.144-.321-3.884-5.778-1.116.314" fill="#f24d7b"/>
  <path d="M216.805 84.586l1.5-.421-.172-.614-1.498.422-.227-.806 1.612-.454-.173-.616-2.214.622 1.023 3.639 2.268-.639-.173-.615-1.667.47-.279-.988" fill="#f24d7b"/>
  <path d="M214.715 85.885l-1.514-2.481-.652.184 2.09 3.337.644-.18.044-3.94-.639.18.027 2.9" fill="#f24d7b"/>
  <path d="M220.715 83.892a.757.757 0 01-.027.3l-.103.137c-.029.025-.113.075-.333.137l-.25.07-.565-2.007.074-.02c.293-.082.405-.096.448-.097l.216.062.208.244c.073.13.145.326.217.577.07.245.107.444.115.597zm-.076-2.14a1.077 1.077 0 00-.479-.205c-.159-.023-.377.005-.653.083l-1.099.31 1.024 3.638 1.13-.32c.243-.067.431-.157.567-.269.135-.113.238-.252.308-.418.072-.167.11-.376.115-.629a2.863 2.863 0 00-.124-.85 3.38 3.38 0 00-.347-.847 1.686 1.686 0 00-.442-.494" fill="#f24d7b"/>
  <path d="M210.047 77.88c-.284-.102-.712-.156-1.284-.16-.542-.001-.899-.041-1.07-.12a.572.572 0 01-.226-.886c.12-.16.321-.281.605-.361.284-.08.521-.074.713.019.191.093.359.304.502.633l1.038-.354c-.193-.614-.512-1.039-.948-1.276-.438-.234-.964-.267-1.578-.094-.408.115-.731.283-.97.502-.238.22-.396.492-.477.813-.079.323-.07.657.027 1.005.085.298.225.558.421.784.196.223.419.385.672.485.255.1.624.156 1.112.165.544.013.888.033 1.039.062a.73.73 0 01.361.167.71.71 0 01.199.342.843.843 0 01-.099.696c-.136.217-.363.372-.681.462-.643.18-1.138-.12-1.483-.901l-.995.412c.555 1.415 1.474 1.943 2.752 1.582.724-.203 1.203-.541 1.438-1.013.234-.472.273-.985.118-1.538-.108-.38-.261-.689-.461-.921-.2-.233-.441-.4-.725-.504" fill="#f24d7b"/>
  <path d="M148.977 90.16l.698-.306-.006-.005-.477-.495c-.07-.009-2.259.095-3.277.143l-.034-.057c-.22-.377-.458-.776-.709-1.196l-.067-.11a84.67 84.67 0 00-.378-.629l-.06-.096a31.958 31.958 0 00-.376-.614l-.028-.048c-.488-.796-.999-1.611-1.486-2.386l.963-.385.007.006.018.021.014.016.08.074.021-.004-.001-.002.053-.04.005.005.01-.02-.035-.074.003-.002-.015-.022-.008-.02.925-.372.02.023.016.017v-.001l.079.074.021-.004-.002-.002.057-.039.004.005.008-.023-.035-.073.004-.002-.014-.021-.006-.013.727-.293.203-.078.013.013.012.018.003-.002.081.073h.02l-.004-.005.059-.039v.005l.009-.02-.03-.076-.017-.029.928-.37.006.002.017.02.013.016.003-.002.079.077.02-.003-.002-.003.058-.04v.004l.012-.02-.035-.072.003-.002-.02-.038.954-.381-.153-.245-.025-.005-.018-.003-.045-.001-.024-.003-.077-.004-.024-.002-.29-.012-.032.002-.172-.006h-.014l-.059-.002-.008-.009.005.009c-.818-.022-2.156-.05-3.408-.07l-.229-.308h.003-.003l-.224-.235-.013.003-.014.003h-.004l-.021.011-.033.007-.002.001-.046.017c-.099.04-.236.11-.371.221h-.003l-.058.06-.02.014-.003.009-.012.012-.103.125.022.043c-.314-.007-.6-.011-.859-.014l-.101-.002h.005c-.179-.003-.336-.007-.472-.007a16.89 16.89 0 00-.313-.482 60.25 60.25 0 00-.575-.887l-.048-.071-.07-.107-.047-.071-.054-.08-.037-.057-.07-.102c-.807-1.168-1.805-1.875-2.231-1.583-.428.297-.12 1.483.685 2.65l.07.1.046.067.045.06.064.091.042.057c.074.108.168.23.268.37l.124.168.021.033c.09.119.183.248.284.387l.348.469c-.047.126-.097.265-.153.422-.099.267-.207.573-.327.904l-.03-.036-.153.048-.021.01-.004.002-.024.01-.075.04a1.275 1.275 0 00-.324.253l-.045.05-.003.004v.002l-.018.02-.018.023-.001.003-.003.001-.005.01-.007.008.138.296c.069.122.145.233.209.323-.216.599-.436 1.214-.637 1.779l-.03.083-.082.227-.066.188-.028.078-.062.18-.024.065-.079.22-.003.01-.134.382-.007-.008.007.009-.02.058-.004.016-.06.168-.003.014-.097.286-.004.011-.023.082-.01.018-.015.048-.002.014-.006.03.15.21.028.017.692-.756h.004l.024.03h.002l.058.057.023-.002-.001-.003.054-.038.003.001.012-.017-.044-.1v-.001l-.005-.013-.019-.033.679-.738.018.025.003-.003.056.057.023-.001-.004-.005.058-.036.002.002.01-.02-.042-.099.001-.002-.005-.01-.012-.026.457-.5.217-.237.028.031.002-.003.056.056h.024l-.004-.003.057-.038.001.003.01-.019-.04-.1v-.002l-.006-.011-.017-.032.676-.735.004.005.028.03h.001l.058.055.021-.002-.004-.003.06-.038v.004l.01-.02-.04-.1v-.001l-.005-.013-.022-.038.693-.755c.567.75 1.161 1.536 1.747 2.292l.061.077c.132.174.267.344.393.512l.072.093c.143.179.282.354.416.53l.132.163c.138.176.272.347.406.512l.046.06c.131.16.258.32.382.473l.037.046-.119.28-.02.048c-.25.57-.581 1.332-.822 1.9l-.03.065-.066.151-.024.06-.118.276-.009.021-.041.098-.003.005-.028.067-.003.011-.012.033c-.016.055.123.32.214.486l.078.136.532-.546v.003l1.643-1.676.017-.017.048.056.074.08.156.164.172-.095.146-.128-.056-.124-.002-.003-.034-.068-.006-.012-.027-.06-.008-.011-.004-.005-.041-.083 2.17-.95" fill="#5173ac"/>
  <path d="M142.784 74.1c-6.12 0-11.1 4.978-11.1 11.098 0 6.12 4.98 11.098 11.1 11.098 6.12 0 11.099-4.978 11.099-11.098 0-6.12-4.979-11.099-11.099-11.099zm0 22.592c-6.337 0-11.493-5.156-11.493-11.494 0-6.339 5.156-11.494 11.493-11.494 6.339 0 11.493 5.155 11.493 11.494 0 6.338-5.154 11.494-11.493 11.494" fill="#5173ac"/>
  <path d="M142.784 75.6c-5.293 0-9.6 4.305-9.6 9.596 0 5.295 4.307 9.6 9.6 9.6 5.295 0 9.6-4.305 9.6-9.6 0-5.29-4.305-9.597-9.6-9.597zm0 19.395c-5.403 0-9.798-4.395-9.798-9.799 0-5.401 4.395-9.795 9.798-9.795 5.403 0 9.8 4.394 9.8 9.795 0 5.404-4.397 9.799-9.8 9.799" fill="#5173ac"/>
  <path d="M194.89 38.32c-7.38 0-13.386 6.006-13.386 13.388 0 7.381 6.005 13.387 13.387 13.387 7.381 0 13.386-6.006 13.386-13.387 0-7.382-6.005-13.388-13.386-13.388zm0 27.25c-7.642 0-13.862-6.218-13.862-13.862 0-7.645 6.22-13.865 13.863-13.865 7.644 0 13.862 6.22 13.862 13.865 0 7.644-6.218 13.863-13.862 13.863" fill="#5173ac"/>
  <path d="M204.04 52.665l.327-.834-.008-.002-.811-.013c-.065.049-1.803 1.954-2.615 2.84l-.074-.02c-.498-.132-1.027-.268-1.584-.409l-.148-.037c-.278-.07-.555-.138-.839-.208l-.13-.031c-.27-.071-.545-.136-.822-.2l-.064-.017c-1.07-.258-2.17-.515-3.22-.757l.481-1.12h.046l.024.005v-.002l.128-.003.014-.022h-.002l.012-.078.008-.002-.01-.025-.09-.03.001-.005-.03-.006-.025-.01.466-1.08.034.003.026.002.126-.005.016-.02h-.004l.014-.08h.009l-.012-.025-.09-.033v-.004l-.029-.006-.014-.006.364-.848.102-.234h.022l.028.004-.003-.003.13-.005.015-.019-.005.002.015-.083.004.004-.008-.025-.088-.037-.035-.012.461-1.08.01-.002.032.004h.022l.002-.002.129-.002.013-.02-.002-.002.013-.078.004.003-.008-.028-.088-.031.003-.005-.05-.013.478-1.111s-.194-.127-.33-.079l-.024.019-.017.012-.04.035-.021.018-.071.062-.019.018-.253.23-.024.028-.15.138-.01.011-.052.047h-.012l.01.003c-.7.661-1.84 1.75-2.9 2.773a3.076 3.076 0 00-.446-.066v-.004l-.001.001a2.384 2.384 0 00-.382-.008l-.009.013-.007.013-.006.005-.01.026-.02.033v.003l-.024.052a1.66 1.66 0 00-.126.494l-.002.001v.096l-.005.031.005.009-.001.022.019.189.054.017c-.268.255-.51.49-.729.703l-.085.081.004-.004c-.152.147-.284.272-.399.385-.23-.052-.45-.098-.661-.142-.48-.108-.89-.194-1.216-.26l-.102-.021-.145-.03-.097-.021-.112-.022-.078-.017-.144-.027c-1.644-.304-3.062-.065-3.174.535-.114.601 1.129 1.335 2.772 1.64l.141.024.093.017.088.014.13.02.08.016c.154.028.329.053.532.086l.241.038.047.008c.173.025.357.056.56.088.213.031.44.065.677.103.065.143.139.3.223.48.141.302.305.647.478 1.023l-.054-.004-.088.167-.01.024-.001.006-.01.03-.033.095.002-.003a1.474 1.474 0 00-.06.482l.004.08.001.005v.002l.003.032.005.032v.008l.003.013.001.013c.117.057.239.096.36.132.16.044.316.074.444.095.317.679.644 1.375.944 2.014l.047.093.12.257.1.21.042.09.096.203.035.075.116.25.005.01c.078.153.144.296.208.429h-.013.013l.031.064.01.017.089.192.009.015.157.317.007.012.047.087.009.024.027.053.012.013.017.03.299.05.037-.009-.05-1.205.003-.003.046.005h.002l.095-.002.017-.02-.004-.002.014-.077h.004l-.006-.025-.118-.047-.002-.002-.014-.005-.043-.013-.047-1.178.036.004v-.005h.096l.014-.018-.007-.001.02-.08h.004l-.01-.023-.115-.048v-.003l-.014-.004-.033-.01-.03-.797-.017-.38.047.002-.001-.003.093.002.021-.02h-.006l.016-.08.004.002-.007-.024-.117-.05-.003-.001-.013-.005-.04-.013-.047-1.175.01.002.046.003v-.002h.093l.019-.022h-.007l.018-.08h.005l-.01-.021-.117-.051-.001-.002-.016-.006-.048-.014-.05-1.203c1.097.154 2.246.315 3.363.46l.114.013c.254.035.506.066.754.1l.135.018c.268.03.53.062.788.096l.245.028c.26.033.515.063.762.091l.089.01c.244.025.483.054.713.077l.068.008c.043.102.084.21.134.334l.022.055c.266.684.623 1.593.892 2.27l.031.076.07.18.027.072.132.327.012.026.047.116.001.007.032.077.008.013.015.037c.033.06.37.164.584.227l.177.05-.008-.898v.002l-.02-2.762v-.027l.087.007.128.006.265.006.066-.222.017-.23-.152-.056h-.005l-.083-.029-.016-.005-.073-.025-.016-.004-.007-.001-.101-.038 1.021-2.593" fill="#5173ac"/>
  <path d="M185.584 47.228l.688-.908-1.577-.478zm1.753-.59l-.484-.14-.94 1.237.275.435c.105.17.17.296.19.376l-.071.256-.239.142-.259-.054-.11-.117-.128-.206-1.347-2.25-.14-.232-.119-.248-.02-.233.114-.25.21-.178.23-.045.229.034c.077.019.177.047.301.082l2.53.668c.193.05.324.1.39.15l.124.232-.076.279-.12.104-.134.036-.192-.026-.214-.052" fill="#5173ac"/>
  <path d="M188.016 42.568l-.608.371.533.88.592-.36c.16-.096.284-.191.378-.284l.164-.287-.078-.32-.21-.194-.284-.035c-.098.014-.26.091-.487.23zm.44 1.576l-.23.14.625 1.03c.081.135.113.253.089.354l-.18.24-.304.05a.516.516 0 01-.267-.243l-1.497-2.464c-.087-.14-.116-.26-.09-.361.026-.103.109-.196.253-.283l1.074-.653c.15-.09.279-.161.392-.212l.331-.099a.952.952 0 01.728.182l.261.294c.147.238.194.47.143.696-.05.227-.197.454-.44.684.155-.01.321.012.501.067.18.054.351.123.518.208.165.082.305.165.417.245l.207.181.036.15-.052.167-.146.135-.217.064-.21-.051a5.916 5.916 0 01-.287-.141l-.528-.273c-.192-.1-.35-.17-.475-.207a.737.737 0 00-.333-.031l-.319.13" fill="#5173ac"/>
  <path d="M192.51 41.002l-.707.091.13 1.022.688-.088c.184-.024.338-.06.46-.107a.563.563 0 00.267-.196.452.452 0 00.059-.324l-.115-.262-.245-.148c-.094-.026-.274-.022-.536.012zm-.238 1.619l-.268.035.153 1.193c.022.158 0 .279-.06.362l-.262.146a.362.362 0 01-.3-.08c-.078-.069-.124-.178-.146-.329l-.368-2.86c-.02-.162.002-.284.064-.367.066-.08.182-.134.347-.154l1.248-.162c.172-.022.32-.034.444-.035.125 0 .239.013.343.044a.997.997 0 01.341.17l.25.292c.063.114.103.239.12.375.035.277-.014.508-.151.695-.139.186-.366.335-.68.446.144.053.289.141.43.264a3.379 3.379 0 01.671.794l.115.25-.03.151-.116.13-.185.067-.224-.032-.17-.13-.207-.247-.374-.462a2.832 2.832 0 00-.349-.383l-.29-.163a.937.937 0 00-.346-.01" fill="#5173ac"/>
  <path d="M195.147 43.675l.28-2.938c.014-.154.061-.264.14-.334l.286-.088.27.14c.065.082.089.2.073.355l-.279 2.939c-.014.155-.061.266-.141.336l-.293.087-.262-.141c-.065-.085-.089-.203-.074-.356" fill="#5173ac"/>
  <path d="M198.239 41.247l-.076 2.657 1.704-2.063.193-.223.153-.092.222.017.154.11.08.167-.012.169-.058.107-.08.107-.091.104-1.73 1.966-.185.215-.186.167-.218.087-.268-.036-.226-.15-.108-.21-.031-.25.001-.283.006-2.594.001-.139.01-.144.029-.123.182-.185.291-.005c.124.046.196.116.22.21.023.093.03.232.023.414" fill="#5173ac"/>
  <path d="M201.097 44.818l.843.77.621-1.529zm.428 1.801l.183-.47-1.144-1.05-.46.231a1.65 1.65 0 01-.39.157l-.249-.095-.118-.251.077-.25.127-.1.216-.11 2.365-1.134.244-.117.257-.095.235.002.239.137.156.226.025.232-.055.225c-.026.075-.064.171-.11.292l-.9 2.457c-.067.19-.128.313-.186.375l-.241.101-.27-.1-.095-.129-.022-.138.044-.189.072-.207" fill="#5173ac"/>
  <path d="M205.24 46.865l-2.399 1.3.746 1.378.058.296-.149.196-.244.018-.213-.213-.89-1.643c-.078-.147-.105-.272-.074-.371.028-.1.116-.19.258-.267l2.539-1.374c.135-.073.252-.097.353-.072l.234.19.034.303c-.032.1-.117.186-.253.26" fill="#5173ac"/>
  <path d="M129.866 50.735h20.033L139.883 35.42zm20.666.343h-21.301l10.652-16.286 10.649 16.286" fill="#285e94"/>
  <path d="M126.182 52.962h27.507L139.936 32zm28.143.342h-28.777l14.388-21.929 14.39 21.93" fill="#285e94"/>
  <path d="M132.474 50.035v-1.878h.206v1.878h-.206" fill="#285e94"/>
  <path d="M133.908 50.035h-.188l-.475-1.415v1.415h-.204v-1.878h.21l.562 1.668.555-1.668h.21v1.878h-.203V48.62l-.467 1.415" fill="#285e94"/>
  <path d="M135.81 50.035h-.186l-.477-1.415v1.415h-.204v-1.878h.212l.561 1.668.556-1.668h.21v1.878h-.205V48.62l-.468 1.415" fill="#285e94"/>
  <path d="M136.845 50.035v-1.878h.203v1.878h-.203" fill="#285e94"/>
  <path d="M138.772 49.954l-.255.075c-.106.024-.229.036-.369.036a.663.663 0 01-.561-.275c-.135-.183-.203-.42-.203-.71 0-.27.067-.499.2-.689a.652.652 0 01.564-.283c.135 0 .239.016.313.046l.239.167-.128.133-.185-.13-.246-.043a.45.45 0 00-.393.227.96.96 0 00-.15.542c0 .27.055.48.169.625.112.145.246.218.404.218l.212-.018.186-.04v-.704h.203v.823" fill="#285e94"/>
  <path d="M139.24 49.08h.193c.162 0 .286-.036.372-.109l.132-.28c0-.131-.036-.226-.109-.285-.073-.057-.192-.087-.361-.087h-.227zm0 .955h-.205v-1.878h.509c.2 0 .35.047.45.14.102.093.153.226.153.398l-.118.312-.273.183.527.845h-.243l-.484-.805c-.01.002-.116.003-.316.005v.8" fill="#285e94"/>
  <path d="M140.79 49.25h.55l-.27-.859zm.197-1.093h.198l.622 1.878h-.224l-.202-.639h-.633l-.201.639h-.203l.643-1.878" fill="#285e94"/>
  <path d="M143.245 48.33h-.584v1.705h-.204V48.33h-.581v-.173h1.37v.173" fill="#285e94"/>
  <path d="M143.463 50.035v-1.878h.204v1.878h-.204" fill="#285e94"/>
  <path d="M144.841 49.893c.156 0 .296-.072.419-.215.123-.145.185-.358.185-.638a.99.99 0 00-.145-.513.486.486 0 00-.45-.246.553.553 0 00-.465.22.894.894 0 00-.168.56c0 .267.06.472.179.617a.553.553 0 00.445.215zm-.01.172c-.264 0-.47-.091-.614-.275-.142-.184-.214-.427-.214-.73 0-.273.081-.5.242-.68a.77.77 0 01.599-.272c.261 0 .461.09.604.272.141.18.212.418.212.714 0 .276-.077.507-.236.693a.742.742 0 01-.593.278" fill="#285e94"/>
  <path d="M146.199 48.493v1.542h-.203v-1.878h.203l.934 1.55v-1.55h.204v1.878h-.197l-.941-1.542" fill="#285e94"/>
  <path d="M145.8 47.213h-12.443v-.344H145.8v.344" fill="#285e94"/>
  <path d="M128.4 52.04a.22.22 0 11-.22-.222c.121 0 .22.1.22.221" fill="#285e94"/>
  <path d="M130.227 52.04c0 .121-.101.22-.222.22a.221.221 0 11.222-.22" fill="#285e94"/>
  <path d="M132.052 52.04a.221.221 0 11-.442-.001.221.221 0 01.442 0" fill="#285e94"/>
  <path d="M133.877 52.04a.22.22 0 11-.44 0 .22.22 0 01.44 0" fill="#285e94"/>
  <path d="M135.704 52.04a.22.22 0 01-.22.22.222.222 0 01-.223-.22c0-.123.1-.222.223-.222.121 0 .22.1.22.221" fill="#285e94"/>
  <path d="M137.53 52.04a.22.22 0 11-.442 0 .22.22 0 01.441 0" fill="#285e94"/>
  <path d="M139.357 52.04a.22.22 0 110 0" fill="#285e94"/>
  <path d="M141.183 52.04a.22.22 0 11-.441 0 .22.22 0 01.44 0" fill="#285e94"/>
  <path d="M143.01 52.04a.221.221 0 11-.443 0 .221.221 0 01.442 0" fill="#285e94"/>
  <path d="M144.836 52.04c0 .121-.1.22-.223.22a.22.22 0 010-.442c.123 0 .223.1.223.221" fill="#285e94"/>
  <path d="M146.661 52.04a.22.22 0 11-.441 0 .22.22 0 01.441 0" fill="#285e94"/>
  <path d="M148.488 52.04a.22.22 0 11-.442 0 .22.22 0 01.442 0" fill="#285e94"/>
  <path d="M150.313 52.04a.22.22 0 11-.441 0 .22.22 0 01.441 0" fill="#285e94"/>
  <path d="M152.139 52.06a.22.22 0 11-.442 0 .22.22 0 01.442 0" fill="#285e94"/>
  <path d="M140.053 33.841l-.305-.068.068-.305.305.069-.068.304" fill="#285e94"/>
  <path d="M141.4 35.385l-.307-.07.07-.304.306.068-.069.306" fill="#285e94"/>
  <path d="M142.376 36.928l-.304-.069.068-.306.305.07-.069.305" fill="#285e94"/>
  <path d="M143.353 38.47l-.306-.068.07-.306.304.069-.068.306" fill="#285e94"/>
  <path d="M144.33 40.014l-.305-.069.068-.305.306.068-.07.306" fill="#285e94"/>
  <path d="M145.307 41.557l-.306-.068.07-.306.304.068-.068.306" fill="#285e94"/>
  <path d="M146.284 43.1l-.305-.069.068-.306.306.07-.069.305" fill="#285e94"/>
  <path d="M147.26 44.642l-.305-.068.07-.306.304.07-.069.304" fill="#285e94"/>
  <path d="M148.237 46.185l-.305-.068.07-.305.303.068-.068.305" fill="#285e94"/>
  <path d="M149.215 47.728l-.304-.069.066-.304.306.068-.068.305" fill="#285e94"/>
  <path d="M150.192 49.27l-.307-.068.07-.305.305.069-.068.305" fill="#285e94"/>
  <path d="M151.15 50.825l-.306-.068.07-.306.303.07-.068.304" fill="#285e94"/>
  <path d="M138.567 35.385l.306-.07-.068-.304-.306.068.068.306" fill="#285e94"/>
  <path d="M137.59 36.928l.306-.069-.07-.306-.305.07.068.305" fill="#285e94"/>
  <path d="M136.613 38.47l.304-.068-.066-.306-.307.069.07.306" fill="#285e94"/>
  <path d="M135.637 40.014l.306-.069-.071-.305-.304.068.07.306" fill="#285e94"/>
  <path d="M134.659 41.557l.306-.068-.068-.306-.306.068.068.306" fill="#285e94"/>
  <path d="M133.683 43.1l.305-.069-.07-.306-.303.07.068.305" fill="#285e94"/>
  <path d="M132.706 44.642l.306-.068-.068-.306-.306.07.068.304" fill="#285e94"/>
  <path d="M131.73 46.185l.305-.068-.069-.305-.306.068.07.305" fill="#285e94"/>
  <path d="M130.753 47.728l.304-.069-.069-.304-.304.068.069.305" fill="#285e94"/>
  <path d="M129.775 49.27l.306-.068-.069-.305-.305.069.068.305" fill="#285e94"/>
  <path d="M128.816 50.825l.306-.068-.069-.306-.305.07.068.304" fill="#285e94"/>
  <path d="M142.61 44.73l.287-.126-.001-.003-.2-.205c-.027-.004-.935.039-1.356.06l-.016-.024c-.09-.156-.188-.323-.293-.497l-.028-.045-.156-.26-.026-.04-.156-.255-.012-.02c-.202-.33-.413-.667-.616-.99l.4-.158.002.002.009.01.005.006.032.03.011-.001h-.003l.024-.018.003.002.004-.008-.015-.03v-.002l-.005-.009-.004-.008.384-.154.01.009.005.007.033.031.008-.002h-.001l.024-.017.002.002.003-.01-.015-.029.002-.002-.006-.008-.002-.005.301-.122.083-.033.006.006.006.009.001-.003.033.031h.008l-.001-.001.025-.017v.002l.004-.009-.013-.031-.005-.012.384-.154.001.002.007.007.006.008h.002l.03.03h.011l-.001-.002.022-.017.002.002.004-.008-.014-.03h.002l-.01-.017.396-.158-.064-.1-.01-.004h-.008l-.018-.001h-.01l-.032-.002-.011-.002-.119-.004h-.014l-.071-.002h-.005l-.024-.002-.003-.002.001.002c-.34-.009-.894-.02-1.413-.027l-.095-.128.002-.001h-.002l-.092-.097h-.006l-.004.002h-.004l-.008.005-.014.003h-.001l-.017.006-.156.093-.024.024-.01.007v.003l-.006.006-.042.05.01.019c-.131-.004-.25-.005-.356-.006h-.043.003l-.196-.004-.128-.2a43.676 43.676 0 00-.24-.367l-.02-.03-.03-.044-.02-.029-.021-.033-.015-.023-.03-.043c-.335-.485-.747-.777-.926-.656-.177.123-.049.614.286 1.097l.029.043.019.027.02.026.025.037.017.024.111.153.05.07.01.013.12.16.143.195-.066.175c-.038.11-.082.238-.133.374l-.012-.014-.065.019-.008.005h-.002l-.01.005-.031.016h.001l-.136.106-.017.02-.001.002-.007.008-.008.01h-.001v.002l-.004.003-.003.005.057.122.088.134-.266.737-.012.035-.034.094-.026.077-.011.033-.028.074-.01.028-.033.09v.004l-.056.16-.002-.003.002.003-.008.023-.001.006-.025.07-.002.006-.04.12-.001.003-.01.034-.003.008-.006.02-.002.006-.003.012.063.087.012.007.285-.313h.003l.01.013.026.023h.009v-.002l.021-.016.006-.007-.019-.04-.001-.007-.007-.013.28-.306.008.01v-.001l.025.023h.01l-.003-.003.024-.014.005-.007-.017-.041h.003l-.004-.006-.006-.01.19-.207.09-.1.011.014v-.001l.024.024h.01l-.002-.002.024-.016v.002l.004-.01-.016-.04-.001-.005-.008-.013.281-.306.001.003.012.012.023.023h.01l-.002-.002.025-.016v.001l.003-.007-.016-.042-.001-.006-.011-.016.288-.312c.236.311.483.637.725.95l.024.032.164.212.03.039.173.22.055.067.168.212.017.024.159.197.016.019-.05.116-.009.02-.341.788-.01.027-.029.062-.01.025-.049.114-.004.009-.016.04-.001.003-.012.026-.001.006-.006.013.088.202.035.056.22-.226v.001l.68-.695.007-.007.021.024.03.033.063.068.072-.04.062-.052-.023-.051-.003-.003-.012-.028-.002-.004-.012-.025-.004-.005-.002-.001-.017-.036.901-.393" fill="#285e94"/>
  <path d="M172.635 102.367h20.033l-10.017-15.315zm20.668.344H172l10.65-16.286 10.653 16.286" fill="#c81b5d"/>
  <path d="M168.952 104.594h27.505l-13.752-20.961zm28.141.344h-28.777l14.39-21.93 14.387 21.93" fill="#c81b5d"/>
  <path d="M175.244 101.667V99.79h.204v1.877h-.204" fill="#c81b5d"/>
  <path d="M176.676 101.667h-.188l-.473-1.415v1.415h-.206V99.79h.212l.562 1.668.556-1.668h.209v1.877h-.205v-1.415l-.467 1.415" fill="#c81b5d"/>
  <path d="M178.58 101.667h-.187l-.476-1.415v1.415h-.205V99.79h.212l.561 1.668.555-1.668h.21v1.877h-.203v-1.415l-.467 1.415" fill="#c81b5d"/>
  <path d="M179.613 101.667V99.79h.203v1.877h-.203" fill="#c81b5d"/>
  <path d="M181.541 101.586l-.254.075c-.107.024-.23.036-.37.036a.663.663 0 01-.561-.274c-.135-.183-.204-.42-.204-.71 0-.27.067-.5.201-.688a.649.649 0 01.564-.285.84.84 0 01.312.047l.24.166-.129.134-.185-.132-.244-.041a.455.455 0 00-.395.227.973.973 0 00-.15.54c0 .272.057.48.169.626.113.146.248.218.405.218l.21-.017.187-.041v-.703h.204v.822" fill="#c81b5d"/>
  <path d="M182.008 100.713h.195a.577.577 0 00.373-.11l.13-.28c0-.13-.035-.226-.11-.284-.072-.058-.192-.087-.36-.087h-.228zm0 .954h-.204V99.79h.508c.2 0 .35.046.452.14.1.093.153.225.153.397l-.117.312-.273.184.525.844h-.244l-.483-.805c-.01.003-.116.003-.317.005v.8" fill="#c81b5d"/>
  <path d="M183.559 100.883h.549l-.27-.858zm.196-1.093h.198l.624 1.877h-.226l-.202-.639h-.632l-.202.64h-.203l.643-1.878" fill="#c81b5d"/>
  <path d="M186.015 99.962h-.586v1.705h-.204v-1.705h-.58v-.172h1.37v.172" fill="#c81b5d"/>
  <path d="M186.232 101.667V99.79h.204v1.877h-.204" fill="#c81b5d"/>
  <path d="M187.61 101.525c.157 0 .297-.072.418-.215.124-.145.185-.357.185-.636 0-.18-.048-.35-.144-.515a.486.486 0 00-.45-.245.55.55 0 00-.464.22.895.895 0 00-.168.56c0 .267.058.471.177.616a.557.557 0 00.447.215zm-.01.172c-.265 0-.47-.091-.613-.275-.143-.184-.216-.427-.216-.73 0-.273.081-.5.244-.68a.77.77 0 01.598-.272c.26 0 .462.09.603.271.144.181.213.42.213.716 0 .276-.078.506-.236.692a.745.745 0 01-.593.278" fill="#c81b5d"/>
  <path d="M188.97 100.125v1.542h-.205l-.001-1.877h.205l.932 1.55v-1.55h.204v1.877h-.194l-.942-1.542" fill="#c81b5d"/>
  <path d="M188.568 98.845h-12.441v-.344h12.441v.344" fill="#c81b5d"/>
  <path d="M171.168 103.671a.221.221 0 11-.22-.22.22.22 0 01.22.22" fill="#c81b5d"/>
  <path d="M172.995 103.671a.222.222 0 01-.222.222.222.222 0 11.221-.222" fill="#c81b5d"/>
  <path d="M174.821 103.671a.222.222 0 11-.223-.22c.125 0 .223.099.223.22" fill="#c81b5d"/>
  <path d="M176.647 103.671a.222.222 0 01-.22.222.223.223 0 01-.223-.222c0-.121.1-.22.223-.22a.22.22 0 01.22.22" fill="#c81b5d"/>
  <path d="M178.473 103.671a.222.222 0 01-.221.222.222.222 0 11.221-.222" fill="#c81b5d"/>
  <path d="M180.3 103.671c0 .122-.1.222-.221.222a.222.222 0 11.221-.222" fill="#c81b5d"/>
  <path d="M182.127 103.671c0 .122-.1.222-.222.222a.222.222 0 11.221-.222" fill="#c81b5d"/>
  <path d="M183.952 103.671a.222.222 0 01-.221.222.22.22 0 11.221-.222" fill="#c81b5d"/>
  <path d="M185.779 103.671a.222.222 0 01-.222.222.22.22 0 11.221-.222" fill="#c81b5d"/>
  <path d="M187.604 103.671a.221.221 0 11-.441 0 .22.22 0 01.441 0" fill="#c81b5d"/>
  <path d="M189.43 103.671c0 .122-.1.222-.222.222a.222.222 0 010-.442c.123 0 .223.099.223.22" fill="#c81b5d"/>
  <path d="M191.256 103.671a.222.222 0 01-.221.222.221.221 0 010-.443.22.22 0 01.221.221" fill="#c81b5d"/>
  <path d="M193.084 103.671a.224.224 0 01-.223.222.222.222 0 11.223-.222" fill="#c81b5d"/>
  <path d="M194.91 103.693a.222.222 0 01-.443 0 .221.221 0 01.442 0" fill="#c81b5d"/>
  <path d="M182.821 85.474l-.304-.07.068-.303.306.068-.07.305" fill="#c81b5d"/>
  <path d="M184.168 87.016l-.307-.068.071-.305.305.069-.069.304" fill="#c81b5d"/>
  <path d="M185.144 88.56l-.304-.068.07-.306.305.069-.071.305" fill="#c81b5d"/>
  <path d="M186.123 90.103l-.307-.068.07-.306.306.068-.07.306" fill="#c81b5d"/>
  <path d="M187.099 91.646l-.304-.068.068-.307.305.07-.07.305" fill="#c81b5d"/>
  <path d="M188.077 93.19l-.306-.07.068-.305.305.068-.067.306" fill="#c81b5d"/>
  <path d="M189.053 94.732l-.305-.068.068-.307.305.07-.068.305" fill="#c81b5d"/>
  <path d="M190.03 96.274l-.306-.068.07-.305.303.068-.068.305" fill="#c81b5d"/>
  <path d="M191.007 97.817l-.307-.068.07-.305.306.069-.07.304" fill="#c81b5d"/>
  <path d="M191.983 99.36l-.304-.068.069-.305.304.068-.07.305" fill="#c81b5d"/>
  <path d="M192.961 100.903l-.306-.068.069-.305.304.069-.067.304" fill="#c81b5d"/>
  <path d="M193.919 102.457l-.306-.067.07-.307.304.07-.068.304" fill="#c81b5d"/>
  <path d="M181.335 87.016l.306-.068-.068-.305-.305.069.067.304" fill="#c81b5d"/>
  <path d="M180.36 88.56l.304-.068-.068-.306-.305.069.069.305" fill="#c81b5d"/>
  <path d="M179.383 90.103l.305-.068-.07-.306-.305.068.07.306" fill="#c81b5d"/>
  <path d="M178.407 91.646l.304-.068-.07-.307-.305.07.07.305" fill="#c81b5d"/>
  <path d="M177.428 93.19l.307-.07-.07-.305-.304.068.067.306" fill="#c81b5d"/>
  <path d="M176.452 94.732l.305-.068-.069-.307-.304.07.068.305" fill="#c81b5d"/>
  <path d="M175.475 96.274l.306-.068-.069-.305-.305.068.068.305" fill="#c81b5d"/>
  <path d="M174.499 97.817l.305-.068-.07-.305-.305.069.07.304" fill="#c81b5d"/>
  <path d="M173.521 99.36l.304-.068-.068-.305-.304.068.068.305" fill="#c81b5d"/>
  <path d="M172.544 100.903l.307-.068-.07-.305-.305.069.068.304" fill="#c81b5d"/>
  <path d="M171.585 102.457l.307-.067-.07-.307-.305.07.068.304" fill="#c81b5d"/>
  <path d="M185.377 96.362l.29-.127-.003-.002-.197-.204c-.028-.005-.938.039-1.359.06l-.015-.025c-.09-.157-.189-.322-.293-.496l-.028-.047-.156-.259-.025-.04-.156-.254-.012-.02c-.203-.33-.414-.668-.616-.99l.4-.158.001.002.008.009.007.007.032.03.009-.002h-.001l.024-.018.001.003.004-.01-.015-.03h.002l-.007-.01-.003-.007.384-.155.008.01.007.006.032.031.01-.001-.003-.001.025-.017.003.002.002-.009-.014-.03.001-.002-.005-.007-.003-.007.301-.12.083-.034.007.006.005.008.001-.001.032.03h.01l-.003-.002.025-.016v.002l.006-.009-.015-.03-.005-.013.384-.154.002.002.007.008.005.007.003-.001.03.031h.01l-.001-.002.024-.017.001.002.005-.009-.016-.029h.003l-.01-.016.395-.159-.062-.1-.011-.003-.008-.001h-.028l-.033-.004h-.008l-.12-.005h-.015l-.072-.002h-.028l-.004-.004.001.004c-.338-.01-.893-.022-1.413-.03l-.095-.128h.002l-.094-.097h-.005l-.005.001h-.003l-.01.006-.013.003-.018.007-.155.092h-.001l-.023.025-.01.007v.002l-.006.006-.043.05.01.019c-.131-.002-.25-.005-.356-.005l-.042-.002h.003l-.196-.003-.13-.2c-.093-.146-.174-.269-.238-.367l-.021-.03-.028-.044-.02-.029-.023-.033-.013-.023-.031-.043c-.335-.484-.747-.777-.925-.656-.178.122-.05.614.285 1.098l.03.042.018.027.019.026.026.037.016.024.112.153.051.07.01.013.118.16.143.196-.064.174c-.04.111-.084.238-.134.374l-.013-.015-.064.02-.01.005-.01.006-.032.015h.001l-.133.105-.019.02-.001.003-.008.009-.008.01-.001.002-.004.003-.002.003.056.122.088.135-.265.737-.01.035-.035.094-.027.077-.012.033-.027.074-.008.028-.034.09v.005l-.056.158-.004-.002.004.003-.01.023-.001.007-.024.07-.001.006-.04.119v.003l-.011.034-.005.009-.006.02-.001.005-.003.012.063.087.012.008.287-.314h.001l.01.012.026.024h.01l-.002-.003.021-.015h.002l.004-.006-.018-.042-.001-.005-.007-.014.28-.306.008.01.026.023.008-.001-.002-.002.024-.015v.001l.006-.008-.018-.04.002-.002-.004-.004-.004-.01.188-.208.092-.099.012.014v-.002l.022.024h.01l-.002-.002.026-.016v.002l.004-.008-.018-.041v-.001l-.002-.005-.007-.013.28-.306.003.003.012.013.022.022h.01l-.002-.002.026-.017v.003l.002-.008-.016-.042-.002-.005-.01-.017.288-.312c.235.31.482.636.724.95l.026.032.164.213.028.037.173.22.055.068.168.212.02.024.157.197.015.02-.05.115-.008.02-.34.788-.012.027-.028.062-.01.025-.048.114-.004.01-.016.04-.003.002-.01.027-.002.005-.005.013.088.202.033.056.221-.226v.002l.682-.696.006-.006.019.023.032.033.063.068.072-.039.061-.053-.024-.051v-.003l-.013-.028-.003-.003-.013-.026-.003-.005h-.001l-.018-.037.9-.393" fill="#c81b5d"/>
  <path d="M100.031 59.7a2.289 2.289 0 00-1.778 2.695l2.23 10.894a2.26 2.26 0 00.978 1.448 2.262 2.262 0 001.714.331l20.735-4.242.044.16-.034-.162a2.288 2.288 0 001.77-2.693l-2.23-10.894a2.267 2.267 0 00-.98-1.448 2.271 2.271 0 00-1.714-.332zm23.957 11.45l-.011.002-20.734 4.244a2.603 2.603 0 01-1.967-.38 2.603 2.603 0 01-1.121-1.66l-2.23-10.895a2.623 2.623 0 012.028-3.085L120.7 55.13a2.599 2.599 0 011.966.379c.583.386.982.975 1.122 1.66l2.229 10.895a2.622 2.622 0 01-2.028 3.085" fill="#ef3233"/>
  <path d="M102.58 71.312l.367 1.74.393-.082.202-.049.144-.067.121-.107c.142-.184.175-.455.1-.814-.053-.253-.13-.435-.232-.545l-.334-.181a1.42 1.42 0 00-.416.033zm-.287-.369l.678-.141c.177-.038.331-.052.464-.046a.854.854 0 01.381.111c.314.173.52.492.62.96.032.153.047.298.047.429 0 .133-.017.256-.052.37l-.158.319-.195.196-.246.134-.314.09-.676.14-.222.002-.118-.1-.066-.199-.393-1.88.025-.26.225-.125" fill="#ef3233"/>
  <path d="M106.4 70.502l-1.17.246.13.63 1.077-.226.189.016.089.128-.029.155-.167.093-1.076.224.152.73 1.211-.253.197.018.093.138-.032.162-.17.094-1.413.296-.261-.024-.125-.227-.403-1.928-.005-.19.082-.126.175-.07 1.371-.286.197.016.09.133-.03.158-.173.093" fill="#ef3233"/>
  <path d="M107.966 70.164l-.349.073.163.784.35-.074c.123-.025.223-.06.3-.104l.16-.164.017-.243-.156-.256c-.09-.06-.253-.065-.485-.016zm.373 1.15l-.475.098.15.726-.023.253-.17.117-.204-.04-.12-.217-.415-1.977.027-.261.236-.128.665-.139c.197-.04.352-.056.465-.05l.302.089.226.212a.88.88 0 01.13.318c.054.262.015.477-.119.644-.131.17-.358.286-.675.354" fill="#ef3233"/>
  <path d="M110.03 70.954l.766-.16-.609-.977zm1.178.499l-.19-.297-1.043.217-.053.355c-.023.14-.046.234-.068.286l-.153.102-.188-.035-.11-.147-.005-.113.025-.167.308-1.803.031-.186.05-.185.093-.133.172-.079.189.003.14.082.104.123.12.183 1.016 1.515.135.258-.039.18-.162.112h-.112l-.085-.045-.089-.102-.086-.124" fill="#ef3233"/>
  <path d="M112.743 69.164l-.477.1.147.705.465-.097a1.36 1.36 0 00.308-.098l.172-.153.022-.228-.093-.177-.177-.09c-.064-.012-.188 0-.367.038zm-.07 1.139l-.182.038.173.824-.022.256-.17.115-.21-.04-.119-.221-.412-1.975.023-.258.228-.127.845-.176.302-.049.236.014.244.1.187.191.103.255a.654.654 0 01-.064.492c-.083.138-.232.253-.44.347l.31.162.287.257.215.26.092.168-.012.107-.07.098-.123.056-.155-.011-.125-.082-.155-.16-.28-.305-.262-.248-.208-.098-.236.01" fill="#ef3233"/>
  <path d="M115.821 68.56l-.567.12.39 1.861-.022.255-.169.116-.205-.039-.12-.222-.391-1.865-.568.12-.21-.018-.095-.142.033-.17.183-.1 1.652-.345.212.018.099.14-.034.17-.188.101" fill="#ef3233"/>
  <path d="M116.624 69.514l-.258-1.233.02-.25.171-.119.207.04.12.22.265 1.262c.03.144.07.26.123.35l.218.188a.64.64 0 00.36.008c.202-.042.334-.126.396-.252.061-.126.07-.298.023-.516l-.266-1.273.02-.251.17-.118.208.038.121.223.26 1.233c.04.2.057.372.046.514a.805.805 0 01-.148.4l-.287.257a1.456 1.456 0 01-.42.15 1.82 1.82 0 01-.522.043.832.832 0 01-.39-.125.795.795 0 01-.268-.302 1.754 1.754 0 01-.169-.487" fill="#ef3233"/>
  <path d="M120.104 67.624l-.479.1.148.705.465-.098c.127-.026.23-.06.308-.098l.173-.151.023-.23-.095-.175-.174-.09c-.068-.013-.19-.001-.369.037zm-.07 1.14l-.183.037.172.825-.02.255-.171.116-.211-.04-.117-.223-.413-1.974.025-.26.226-.124.845-.177.303-.048.235.013.245.101.188.19.104.254c.04.193.018.357-.067.493-.083.138-.231.252-.44.345l.31.164.288.257.215.26.092.168-.01.107-.072.098-.124.055-.156-.01-.123-.083-.156-.16-.28-.304-.26-.248-.208-.099-.237.011" fill="#ef3233"/>
  <path d="M123.38 66.949l-1.172.244.132.63 1.078-.224.188.016.088.128-.026.156-.168.09-1.078.226.153.73 1.21-.253.197.019.093.138-.03.16-.173.095-1.413.296-.26-.024-.124-.228-.403-1.927-.005-.191.081-.124.175-.07 1.371-.288.197.017.09.131-.029.16-.172.093" fill="#ef3233"/>
  <path d="M121.982 59.332l-21.56 4.512a.252.252 0 01-.297-.193.25.25 0 01.194-.297l21.561-4.512a.251.251 0 01.297.195.252.252 0 01-.195.295" fill="#ef3233"/>
  <path d="M123.23 65.294l-21.56 4.511a.248.248 0 01-.296-.193.248.248 0 01.194-.296l21.558-4.512a.252.252 0 01.297.193.249.249 0 01-.192.297" fill="#ef3233"/>
  <path d="M121.837 61.705l.043-.253h-.002l-.23.043c-.015.018-.394.658-.571.958l-.02-.002a29.619 29.619 0 00-.472-.022l-.046-.002-.248-.01h-.038l-.245-.009h-.018c-.318-.01-.644-.017-.954-.023l.07-.346h.002l.01-.001h.008v-.002l.035-.008.004-.007h-.002v-.022l.002-.002-.005-.005-.027-.005h-.009l-.008-.002.066-.333h.012l.007-.001.036-.01.004-.006h-.003l-.001-.023h.004l-.005-.007-.028-.004.001-.002-.008.002-.006-.002.052-.26.016-.073h.006l.008-.002.036-.01.003-.006h-.002v-.023h.001l-.004-.006-.027-.005-.01-.001.067-.333h.011l.006-.003.037-.01.003-.005-.002-.023h.001l-.004-.008-.026-.003v-.001h-.014l.067-.344-.095-.003-.007.008-.004.004-.01.013-.005.006-.015.021-.005.007-.058.08-.005.01-.034.047-.001.003-.013.017h-.003l.003.001c-.16.228-.416.603-.656.954l-.13.007-.109.02v.004l-.002.004v.002l-.002.008-.003.01-.002.002-.002.016-.007.146.005.029v.007l.003.003.001.006.016.053.017.001-.166.243-.019.027.002-.001-.09.132h-.196a18.722 18.722 0 00-.36-.003h-.197c-.484.013-.868.164-.866.34.005.176.398.31.88.298h.069l.025-.002.04-.002h.021l.156-.008.072-.003h.012l.162-.009.2-.011.09.122.195.26-.014.003-.016.052-.001.007v.003l-.002.008-.003.03v-.001l.011.14.006.021v.002h.003l.002.009.002.009v.001l.003.005.001.003.11.015.13.002.385.513.02.023.048.066.041.053.017.023.038.051.016.019.048.065.001.002.084.109h-.003.003l.014.016.002.005.038.048.003.003.064.08.001.003.018.024.006.005.01.013.004.004.006.007.087-.004.01-.005-.084-.337v-.001l.015-.001.026-.007.004-.006-.002-.001v-.022l-.004-.007-.035-.006-.005-.002h-.013l-.083-.33h.01v-.002l.027-.007.004-.004-.002-.001v-.023h.001l-.003-.008-.036-.005v-.001h-.004l-.011-.002-.056-.222-.027-.107.015-.002h-.002l.027-.006.004-.007-.002-.023h.001l-.003-.006-.035-.007h-.005l-.013-.001-.082-.33h.002l.014-.002v-.001l.026-.006.005-.007h-.002v-.023l.002.001-.005-.006-.035-.009h-.006l-.015-.002-.085-.336c.32-.02.653-.044.977-.068l.033-.004.218-.016.04-.004.228-.019.072-.006.22-.02.024-.002.208-.02.019-.003.056.087.012.013c.114.18.27.415.386.589l.011.02.031.047.013.018.057.085.003.007.021.03h.002l.013.022.002.003.007.01.178.03.053.003-.056-.253h.002l-.17-.778-.002-.007.025-.005.035-.004.076-.015.007-.066-.01-.067-.045-.006-.002-.001-.026-.002-.004-.001-.022-.003h-.007l-.03-.003.134-.795" fill="#ef3233"/>
  <path d="M101.577 61.406a.467.467 0 11-.917.182.467.467 0 01.917-.182" fill="#ef3233"/>
  <path d="M107.005 60.34a.468.468 0 11-.917.18.468.468 0 01.917-.18" fill="#ef3233"/>
  <path d="M104.29 60.872a.468.468 0 11-.918.182.468.468 0 01.919-.182" fill="#ef3233"/>
  <path d="M109.719 59.805a.468.468 0 11-.918.182.468.468 0 01.918-.182" fill="#ef3233"/>
  <path d="M112.432 59.273a.467.467 0 11-.916.181.467.467 0 01.916-.18" fill="#ef3233"/>
  <path d="M117.86 58.206a.468.468 0 11-.918.18.468.468 0 01.918-.18" fill="#ef3233"/>
  <path d="M115.147 58.74a.468.468 0 11-.918.18.468.468 0 01.918-.18" fill="#ef3233"/>
  <path d="M120.575 57.674a.467.467 0 11-.917.179.467.467 0 01.917-.18" fill="#ef3233"/>
  <path d="M97.905 102.83l25.078 3.907 2.107-13.53-25.078-3.905zm25.221 4.355l-25.495-3.971-.174-.24 2.17-13.945.242-.176 25.495 3.971.175.24-2.172 13.946-.241.175" fill="#4ba438"/>
  <path d="M109.266 92.113l.599.093-1.891 3.141-.618-.096-.754-3.552.667.103.567 2.698 1.43-2.387" fill="#4ba438"/>
  <path d="M110.228 95.699l-.637-.1.523-3.354.636.099-.522 3.355" fill="#4ba438"/>
  <path d="M110.692 94.97l.638.101-.005.038-.002.242.083.15.203.11.25.069.22-.009.213-.09v.002c.117-.075.19-.207.221-.398.023-.155 0-.276-.074-.362l-.193-.18-.24-.168.002.002-.163-.098a4.029 4.029 0 01-.315-.207l-.194-.168a1.098 1.098 0 01-.235-.369.884.884 0 01-.036-.408c.037-.237.17-.438.398-.6.209-.148.525-.19.946-.125.194.03.354.073.482.128a.75.75 0 01.288.196l.146.254.03.245-.009.038-.638-.099.008-.039v-.084l-.023-.082-.05-.07-.074-.05-.253-.077a.532.532 0 00-.423.091.492.492 0 00-.178.332l.023.27.132.21.166.13.217.144.19.12c.163.104.298.204.404.299l.22.26a.902.902 0 01.103.54l-.075.236-.15.235-.193.17-.273.128-.3.047a2.16 2.16 0 01-.393-.03 2.069 2.069 0 01-.66-.2.819.819 0 01-.366-.36l-.073-.241-.002-.233.007-.04" fill="#4ba438"/>
  <path d="M114.374 95.035l.996.155-.073-.345-.07-.33-.07-.328-.071-.345zm-.72 1.198l-.6-.094 1.898-3.14.62.097.747 3.553-.664-.105-.202-.968-1.281-.2-.518.857" fill="#4ba438"/>
  <path d="M100.762 98.318l1.207.187-.341-1.632zm-.7 1.165l-.4-.063 1.877-3.108.438.068.738 3.516-.468-.072-.201-.968-1.465-.228-.518.855" fill="#4ba438"/>
  <path d="M103.784 98.381l.29.046c.382.058.644.024.788-.104a.81.81 0 00.266-.5.63.63 0 00-.08-.455c-.08-.125-.266-.209-.553-.254l-.502-.077zm-.255 1.642l-.434-.069.517-3.319.924.144c.352.056.594.13.73.224a.747.747 0 01.277.367c.05.151.063.318.034.503a1.075 1.075 0 01-.44.734c-.244.177-.576.234-.995.168l-.41-.063-.203 1.31" fill="#4ba438"/>
  <path d="M106.341 98.78l.29.046c.381.059.644.023.79-.105a.814.814 0 00.263-.501.622.622 0 00-.078-.453c-.08-.126-.266-.21-.555-.254l-.502-.079zm-.256 1.64l-.434-.067.518-3.32.923.144c.353.055.595.13.73.224a.73.73 0 01.277.367c.052.151.064.318.035.501a1.076 1.076 0 01-.44.735c-.243.179-.575.235-.996.17l-.409-.065-.204 1.31" fill="#4ba438"/>
  <path d="M108.915 99.062l.422.065c.177.028.317.022.417-.02l.256-.205a.717.717 0 00.133-.325l-.02-.288-.155-.237c-.075-.068-.211-.118-.408-.148l-.453-.071zm-.273 1.756l-.434-.067.517-3.32 1.028.16c.25.04.436.105.552.198.115.092.2.213.252.363.053.15.067.305.042.465a.933.933 0 01-.134.362l-.262.29a1.175 1.175 0 01-.46.192l.143.138.104.195.1.245.376 1.065-.495-.078-.324-.945a2.002 2.002 0 00-.348-.622l-.435-.068-.222 1.427" fill="#4ba438"/>
  <path d="M112.193 101.135a.815.815 0 00.77-.282c.209-.235.35-.566.416-.997.068-.43.035-.788-.094-1.076a.81.81 0 00-.647-.502.81.81 0 00-.768.282c-.211.235-.35.566-.417.995-.067.43-.035.79.094 1.077a.81.81 0 00.646.503zm-.052.332a1.284 1.284 0 01-.944-.615c-.215-.347-.28-.8-.192-1.365.087-.563.287-.977.598-1.24a1.288 1.288 0 011.086-.3c.415.065.73.27.945.616.218.344.28.8.193 1.364-.087.563-.286.977-.596 1.24a1.297 1.297 0 01-1.09.3" fill="#4ba438"/>
  <path d="M117.002 98.72l.402.064-1.873 3.109-.434-.068-.745-3.518.47.074.618 2.948 1.562-2.608" fill="#4ba438"/>
  <path d="M117.267 102.163l.517-3.32 1.877.292-.055.364-1.446-.224-.163 1.048 1.26.197-.051.33-1.26-.196-.19 1.211 1.562.243-.058.365-1.993-.31" fill="#4ba438"/>
  <path d="M120.28 102.258l.51.08c.302.047.538.038.706-.026a.865.865 0 00.42-.366c.113-.177.19-.41.233-.697.048-.29.049-.543.006-.762a.885.885 0 00-.27-.513c-.139-.122-.371-.209-.699-.26l-.499-.076zm-.49.298l.516-3.32.918.142c.446.07.763.18.953.335.188.152.32.363.398.63.076.268.088.58.032.937-.052.335-.15.617-.293.848-.144.23-.332.4-.568.512-.236.11-.561.134-.979.068l-.978-.152" fill="#4ba438"/>
  <path d="M99.856 101.577a.252.252 0 01-.29.21.252.252 0 01-.212-.289.255.255 0 01.29-.211c.14.02.234.15.212.29" fill="#4ba438"/>
  <path d="M103.264 102.107a.254.254 0 01-.29.213.255.255 0 01.08-.503.253.253 0 01.21.29" fill="#4ba438"/>
  <path d="M101.56 101.842a.254.254 0 11-.502-.078.254.254 0 01.502.078" fill="#4ba438"/>
  <path d="M104.969 102.373a.255.255 0 01-.503-.078.255.255 0 01.503.078" fill="#4ba438"/>
  <path d="M106.673 102.639a.256.256 0 01-.292.21.253.253 0 01.078-.5c.14.021.234.151.214.29" fill="#4ba438"/>
  <path d="M110.08 103.17a.254.254 0 11-.5-.08.254.254 0 01.5.08" fill="#4ba438"/>
  <path d="M108.375 102.903a.252.252 0 01-.289.212.252.252 0 01-.212-.29.252.252 0 01.29-.21c.138.02.233.15.211.288" fill="#4ba438"/>
  <path d="M111.784 103.434a.255.255 0 01-.29.212.255.255 0 01-.212-.29.253.253 0 01.29-.211.255.255 0 01.212.289" fill="#4ba438"/>
  <path d="M113.488 103.7a.254.254 0 01-.502-.078.254.254 0 01.502.077" fill="#4ba438"/>
  <path d="M116.895 104.23a.252.252 0 01-.288.213.254.254 0 11.288-.213" fill="#4ba438"/>
  <path d="M115.192 103.966a.255.255 0 01-.503-.078.254.254 0 11.503.078" fill="#4ba438"/>
  <path d="M118.599 104.495a.253.253 0 11-.5-.077.253.253 0 01.5.077" fill="#4ba438"/>
  <path d="M120.303 104.762a.254.254 0 11-.5-.08.254.254 0 01.5.08" fill="#4ba438"/>
  <path d="M122.007 105.026a.254.254 0 11-.502-.078.254.254 0 01.502.078" fill="#4ba438"/>
</svg>